<svg width="84" height="14" viewBox="0 0 84 14" fill="none" xmlns="http://www.w3.org/2000/svg">
<path d="M3.48 10.696L0 1.04799H4.608L7.464 9.47199C7.4 9.39199 7.344 9.34399 7.296 9.32799C7.248 9.29599 7.2 9.27999 7.152 9.27999C7.104 9.27999 7.056 9.29599 7.008 9.32799C6.96 9.34399 6.904 9.39199 6.84 9.47199L9.696 1.04799H14.304L10.752 10.696C10.416 11.608 9.944 12.296 9.336 12.76C8.744 13.208 8.016 13.432 7.152 13.432C6.288 13.432 5.544 13.208 4.92 12.76C4.296 12.296 3.816 11.608 3.48 10.696Z" fill="#111C18"/>
<path d="M21.3825 13.384C20.4545 13.4 19.5825 13.24 18.7665 12.904C17.9665 12.568 17.2705 12.112 16.6785 11.536C16.0865 10.944 15.6225 10.264 15.2865 9.49599C14.9505 8.71199 14.7825 7.88799 14.7825 7.02399C14.7825 6.15999 14.9505 5.34399 15.2865 4.57599C15.6225 3.79199 16.0865 3.11199 16.6785 2.53599C17.2705 1.94399 17.9665 1.48799 18.7665 1.16799C19.5825 0.831993 20.4545 0.671993 21.3825 0.687993C22.5825 0.703994 23.6945 0.999994 24.7185 1.57599C25.7585 2.13599 26.5505 3.03199 27.0945 4.26399L23.5185 6.18399C23.3265 5.76799 23.0465 5.42399 22.6785 5.15199C22.3105 4.87999 21.8785 4.74399 21.3825 4.74399C20.9345 4.74399 20.5345 4.84799 20.1825 5.05599C19.8465 5.24799 19.5825 5.51999 19.3905 5.87199C19.1985 6.20799 19.1025 6.59199 19.1025 7.02399C19.1025 7.43999 19.1985 7.82399 19.3905 8.17599C19.5825 8.52799 19.8465 8.80799 20.1825 9.01599C20.5345 9.22399 20.9345 9.32799 21.3825 9.32799C21.8785 9.32799 22.3105 9.19199 22.6785 8.91999C23.0465 8.63199 23.3265 8.28799 23.5185 7.88799L27.0945 9.80799C26.5505 11.04 25.7585 11.944 24.7185 12.52C23.6945 13.08 22.5825 13.368 21.3825 13.384Z" fill="#111C18"/>
<path d="M35.2899 4.88799C34.7619 4.88799 34.3379 5.01599 34.0179 5.27199C33.6979 5.52799 33.4659 5.86399 33.3219 6.27999C33.1779 6.69599 33.1059 7.15999 33.1059 7.67199V13.048H28.7859V7.14399C28.7859 5.95999 29.0179 4.87999 29.4819 3.90399C29.9459 2.92799 30.6579 2.15199 31.6179 1.57599C32.5779 0.983993 33.8019 0.687993 35.2899 0.687993C36.7779 0.687993 38.0019 0.983993 38.9619 1.57599C39.9219 2.15199 40.6339 2.92799 41.0979 3.90399C41.5619 4.87999 41.7939 5.95999 41.7939 7.14399V13.048H37.4739V7.67199C37.4739 7.15999 37.4019 6.69599 37.2579 6.27999C37.1139 5.86399 36.8819 5.52799 36.5619 5.27199C36.2419 5.01599 35.8179 4.88799 35.2899 4.88799Z" fill="#111C18"/>
<path d="M49.2004 13.432C47.8404 13.432 46.7124 13.2 45.8164 12.736C44.9204 12.272 44.2164 11.584 43.7044 10.672L46.8244 8.91999C47.0484 9.30399 47.3284 9.59199 47.6644 9.78399C48.0004 9.97599 48.4404 10.072 48.9844 10.072C49.2884 10.072 49.5284 10.04 49.7044 9.97599C49.8964 9.91199 50.0404 9.832 50.1364 9.73599C50.2324 9.62399 50.2804 9.50399 50.2804 9.37599C50.2804 9.13599 50.1284 8.95999 49.8244 8.84799C49.5204 8.73599 49.1284 8.63999 48.6484 8.55999C48.1684 8.47999 47.6564 8.38399 47.1124 8.27199C46.5684 8.14399 46.0564 7.95199 45.5764 7.69599C45.0964 7.43999 44.7044 7.07999 44.4004 6.61599C44.0964 6.13599 43.9444 5.51199 43.9444 4.74399C43.9444 3.99199 44.1444 3.31199 44.5444 2.70399C44.9604 2.07999 45.5524 1.58399 46.3204 1.21599C47.1044 0.847993 48.0404 0.663993 49.1284 0.663993C50.0884 0.663993 50.9044 0.799994 51.5764 1.07199C52.2484 1.34399 52.8004 1.68799 53.2324 2.10399C53.6804 2.51999 54.0164 2.95199 54.2404 3.39999L51.1204 5.17599C50.9924 4.80799 50.7444 4.52799 50.3764 4.33599C50.0244 4.12799 49.6404 4.02399 49.2244 4.02399C49.0164 4.02399 48.8404 4.05599 48.6964 4.11999C48.5524 4.16799 48.4404 4.23999 48.3604 4.33599C48.2964 4.41599 48.2644 4.51999 48.2644 4.64799C48.2644 4.88799 48.4164 5.07199 48.7204 5.19999C49.0244 5.32799 49.4164 5.43199 49.8964 5.51199C50.3764 5.59199 50.8884 5.69599 51.4324 5.82399C51.9764 5.95199 52.4884 6.14399 52.9684 6.39999C53.4484 6.65599 53.8404 7.01599 54.1444 7.47999C54.4484 7.92799 54.6004 8.52799 54.6004 9.27999C54.6004 10.112 54.3524 10.84 53.8564 11.464C53.3604 12.088 52.7044 12.576 51.8884 12.928C51.0724 13.264 50.1764 13.432 49.2004 13.432Z" fill="#111C18"/>
<path d="M62.7525 13.384C61.4725 13.384 60.3205 13.12 59.2965 12.592C58.2885 12.048 57.4885 11.296 56.8965 10.336C56.3205 9.35999 56.0325 8.21599 56.0325 6.90399C56.0325 5.75199 56.2965 4.69599 56.8245 3.73599C57.3685 2.77599 58.1205 2.00799 59.0805 1.43199C60.0405 0.855993 61.1525 0.567993 62.4165 0.567993C63.7285 0.567993 64.8405 0.855993 65.7525 1.43199C66.6645 2.00799 67.3525 2.76799 67.8165 3.71199C68.2965 4.63999 68.5365 5.63999 68.5365 6.71199V7.79199H59.5125L60.1125 7.02399C60.1125 7.56799 60.2165 8.04799 60.4245 8.46399C60.6485 8.86399 60.9525 9.17599 61.3365 9.39999C61.7205 9.60799 62.1765 9.71199 62.7045 9.71199C63.2805 9.71199 63.7845 9.56799 64.2165 9.27999C64.6645 8.99199 64.9925 8.61599 65.2005 8.15199L68.5125 9.80799C68.0005 10.928 67.2485 11.808 66.2565 12.448C65.2645 13.072 64.0965 13.384 62.7525 13.384ZM60.3765 5.55999H64.2405C64.1765 5.33599 64.0565 5.12799 63.8805 4.93599C63.7205 4.72799 63.5125 4.56799 63.2565 4.45599C63.0005 4.32799 62.7045 4.26399 62.3685 4.26399C62.0325 4.26399 61.7285 4.32799 61.4565 4.45599C61.1845 4.56799 60.9605 4.71999 60.7845 4.91199C60.6085 5.10399 60.4725 5.31999 60.3765 5.55999Z" fill="#111C18"/>
<path d="M76.0922 13.408C74.9242 13.408 73.9002 13.12 73.0202 12.544C72.1402 11.968 71.4522 11.2 70.9562 10.24C70.4602 9.26399 70.2122 8.19199 70.2122 7.02399C70.2122 5.85599 70.5002 4.79199 71.0762 3.83199C71.6682 2.87199 72.4602 2.10399 73.4522 1.52799C74.4442 0.951993 75.5642 0.663993 76.8122 0.663993C78.0922 0.663993 79.2282 0.943993 80.2202 1.50399C81.2122 2.04799 81.9882 2.79999 82.5482 3.75999C83.1242 4.70399 83.4122 5.79199 83.4122 7.02399V13.048H79.3322V8.84799H80.5322C80.5322 9.72799 80.3562 10.512 80.0042 11.2C79.6522 11.888 79.1482 12.432 78.4922 12.832C77.8362 13.216 77.0362 13.408 76.0922 13.408ZM76.8122 9.35199C77.2762 9.35199 77.6762 9.24799 78.0122 9.03999C78.3482 8.83199 78.6122 8.55199 78.8042 8.19999C78.9962 7.84799 79.0922 7.46399 79.0922 7.04799C79.0922 6.61599 78.9962 6.22399 78.8042 5.87199C78.6122 5.51999 78.3482 5.23999 78.0122 5.03199C77.6762 4.82399 77.2762 4.71999 76.8122 4.71999C76.3642 4.71999 75.9642 4.82399 75.6122 5.03199C75.2762 5.23999 75.0122 5.51999 74.8202 5.87199C74.6282 6.22399 74.5322 6.61599 74.5322 7.04799C74.5322 7.46399 74.6282 7.84799 74.8202 8.19999C75.0122 8.55199 75.2762 8.83199 75.6122 9.03999C75.9642 9.24799 76.3642 9.35199 76.8122 9.35199Z" fill="#111C18"/>
</svg>
